<?xml version="1.0" encoding="UTF-8" standalone="no"?>
<!DOCTYPE svg PUBLIC "-//W3C//DTD SVG 1.1//EN" "http://www.w3.org/Graphics/SVG/1.1/DTD/svg11.dtd">
<svg width="100%" height="100%" viewBox="0 0 1500 1246" version="1.1" xmlns="http://www.w3.org/2000/svg" xmlns:xlink="http://www.w3.org/1999/xlink" xml:space="preserve" xmlns:serif="http://www.serif.com/" style="fill-rule:evenodd;clip-rule:evenodd;stroke-linejoin:round;stroke-miterlimit:2;">
    <g id="Artboard1" transform="matrix(1,0,0,1,-2.27374e-13,-126.491)">
        <rect x="0" y="126.491" width="1500" height="1245.57" style="fill:none;"/>
        <clipPath id="_clip1">
            <rect x="0" y="126.491" width="1500" height="1245.57"/>
        </clipPath>
        <g clip-path="url(#_clip1)">
            <g transform="matrix(1.11766,0,0,1.10959,-64.7305,-69.9236)">
                <g transform="matrix(1.37737,-0.242867,2.15289e-17,1.42019,-225.097,119.305)">
                    <g transform="matrix(1,0,0,1,15.8795,2.64211)">
                    
                        <rect x="227.922" y="319.802" width="124.826" height="480.198" style="fill:rgb(255,0,7);fill-rule:nonzero;"/>
                    </g>
                    <path d="M578.199,703.196L605.584,703.196C637.003,703.196 659.506,699.163 673.092,691.096C686.679,683.029 693.472,670.079 693.472,652.247C693.472,634.415 686.679,621.465 673.092,613.398C659.506,605.331 637.003,601.297 605.584,601.297L578.199,601.297L578.199,703.196ZM578.199,508.315L601.126,508.315C640.187,508.315 659.718,492.818 659.718,461.823C659.718,430.829 640.187,415.332 601.126,415.332L578.199,415.332L578.199,508.315ZM453.373,319.802L639.338,319.802C683.494,319.802 717.036,330.417 739.963,351.645C762.891,372.874 774.354,403.444 774.354,443.354C774.354,467.555 770.002,487.617 761.298,503.538C752.595,519.46 739.326,532.94 721.494,543.979C739.326,547.376 754.505,552.577 767.03,559.583C779.555,566.588 789.745,575.186 797.6,585.376C805.454,595.566 811.08,607.029 814.477,619.767C817.873,632.504 819.572,646.09 819.572,660.526C819.572,683.029 815.644,702.984 807.79,720.392C799.935,737.799 788.896,752.447 774.673,764.335C760.449,776.224 743.148,785.14 722.768,791.084C702.388,797.028 679.461,800 653.986,800L453.373,800L453.373,319.802Z" style="fill:rgb(255,0,7);fill-rule:nonzero;"/>
                    <g transform="matrix(0.92692,0,0,0.950935,34.5969,29.1762)">
                        <path d="M1157.75,442.717C1144.16,431.678 1130.58,423.505 1116.99,418.198C1103.4,412.891 1090.24,410.237 1077.5,410.237C1061.37,410.237 1048.21,414.058 1038.02,421.701C1027.83,429.343 1022.73,439.321 1022.73,451.634C1022.73,460.125 1025.28,467.131 1030.38,472.65C1035.47,478.17 1042.16,482.946 1050.44,486.98C1058.71,491.013 1068.06,494.516 1078.46,497.488C1088.86,500.46 1099.16,503.644 1109.35,507.041C1150.11,520.628 1179.93,538.778 1198.83,561.493C1217.72,584.208 1227.17,613.822 1227.17,650.336C1227.17,674.962 1223.03,697.252 1214.75,717.207C1206.47,737.162 1194.37,754.252 1178.45,768.475C1162.53,782.698 1142.99,793.737 1119.86,801.592C1096.71,809.447 1070.5,813.374 1041.2,813.374C980.487,813.374 924.23,795.33 872.432,759.24L925.929,658.615C944.61,675.174 963.079,687.487 981.336,695.554C999.593,703.621 1017.64,707.654 1035.47,707.654C1055.85,707.654 1071.03,702.984 1081.01,693.643C1090.98,684.302 1095.97,673.688 1095.97,661.8C1095.97,654.582 1094.7,648.319 1092.15,643.012C1089.6,637.705 1085.36,632.822 1079.41,628.364C1073.47,623.906 1065.72,619.767 1056.17,615.945C1046.62,612.124 1035.05,607.878 1021.46,603.208C1005.33,598.113 989.509,592.487 974.012,586.331C958.515,580.175 944.716,572.002 932.616,561.812C920.515,551.622 910.75,538.778 903.32,523.281C895.89,507.784 892.175,488.147 892.175,464.371C892.175,440.595 896.102,419.047 903.957,399.729C911.811,380.411 922.85,363.852 937.074,350.053C951.297,336.255 968.705,325.534 989.297,317.892C1009.89,310.249 1032.92,306.428 1058.4,306.428C1082.17,306.428 1107.01,309.718 1132.91,316.299C1158.81,322.88 1183.65,332.539 1207.42,345.277L1157.75,442.717Z" style="fill:rgb(255,0,7);fill-rule:nonzero;"/>
                    </g>
                </g>
                <g transform="matrix(1,0,0,1,21.4148,100)">
                    <path d="M100,1200L1378.59,968.374L1378.59,1200L100,1200Z" style="fill:rgb(255,0,7);"/>
                </g>
                <g transform="matrix(-1,-1.17961e-16,1.17961e-16,-1,1478.59,1406.98)">
                    <path d="M100,1200L1378.59,968.374L1378.59,1200L100,1200Z" style="fill:rgb(255,0,7);"/>
                </g>
            </g>
            <g transform="matrix(1.11766,0,0,1.10959,-87.8319,-86.3053)">
                <g transform="matrix(1.37737,-0.242867,2.15289e-17,1.42019,-225.097,119.305)">
                    <g transform="matrix(1,0,0,1,15.8795,2.64211)">
                        <rect x="227.922" y="319.802" width="124.826" height="480.198" style="fill:white;fill-rule:nonzero;"/>
                    </g>
                    <path d="M578.199,703.196L605.584,703.196C637.003,703.196 659.506,699.163 673.092,691.096C686.679,683.029 693.472,670.079 693.472,652.247C693.472,634.415 686.679,621.465 673.092,613.398C659.506,605.331 637.003,601.297 605.584,601.297L578.199,601.297L578.199,703.196ZM578.199,508.315L601.126,508.315C640.187,508.315 659.718,492.818 659.718,461.823C659.718,430.829 640.187,415.332 601.126,415.332L578.199,415.332L578.199,508.315ZM453.373,319.802L639.338,319.802C683.494,319.802 717.036,330.417 739.963,351.645C762.891,372.874 774.354,403.444 774.354,443.354C774.354,467.555 770.002,487.617 761.298,503.538C752.595,519.46 739.326,532.94 721.494,543.979C739.326,547.376 754.505,552.577 767.03,559.583C779.555,566.588 789.745,575.186 797.6,585.376C805.454,595.566 811.08,607.029 814.477,619.767C817.873,632.504 819.572,646.09 819.572,660.526C819.572,683.029 815.644,702.984 807.79,720.392C799.935,737.799 788.896,752.447 774.673,764.335C760.449,776.224 743.148,785.14 722.768,791.084C702.388,797.028 679.461,800 653.986,800L453.373,800L453.373,319.802Z" style="fill:white;fill-rule:nonzero;"/>
                    <g transform="matrix(0.92692,0,0,0.950935,34.5969,29.1762)">
                        <path d="M1157.75,442.717C1144.16,431.678 1130.58,423.505 1116.99,418.198C1103.4,412.891 1090.24,410.237 1077.5,410.237C1061.37,410.237 1048.21,414.058 1038.02,421.701C1027.83,429.343 1022.73,439.321 1022.73,451.634C1022.73,460.125 1025.28,467.131 1030.38,472.65C1035.47,478.17 1042.16,482.946 1050.44,486.98C1058.71,491.013 1068.06,494.516 1078.46,497.488C1088.86,500.46 1099.16,503.644 1109.35,507.041C1150.11,520.628 1179.93,538.778 1198.83,561.493C1217.72,584.208 1227.17,613.822 1227.17,650.336C1227.17,674.962 1223.03,697.252 1214.75,717.207C1206.47,737.162 1194.37,754.252 1178.45,768.475C1162.53,782.698 1142.99,793.737 1119.86,801.592C1096.71,809.447 1070.5,813.374 1041.2,813.374C980.487,813.374 924.23,795.33 872.432,759.24L925.929,658.615C944.61,675.174 963.079,687.487 981.336,695.554C999.593,703.621 1017.64,707.654 1035.47,707.654C1055.85,707.654 1071.03,702.984 1081.01,693.643C1090.98,684.302 1095.97,673.688 1095.97,661.8C1095.97,654.582 1094.7,648.319 1092.15,643.012C1089.6,637.705 1085.36,632.822 1079.41,628.364C1073.47,623.906 1065.72,619.767 1056.17,615.945C1046.62,612.124 1035.05,607.878 1021.46,603.208C1005.33,598.113 989.509,592.487 974.012,586.331C958.515,580.175 944.716,572.002 932.616,561.812C920.515,551.622 910.75,538.778 903.32,523.281C895.89,507.784 892.175,488.147 892.175,464.371C892.175,440.595 896.102,419.047 903.957,399.729C911.811,380.411 922.85,363.852 937.074,350.053C951.297,336.255 968.705,325.534 989.297,317.892C1009.89,310.249 1032.92,306.428 1058.4,306.428C1082.17,306.428 1107.01,309.718 1132.91,316.299C1158.81,322.88 1183.65,332.539 1207.42,345.277L1157.75,442.717Z" style="fill:white;fill-rule:nonzero;"/>
                    </g>
                </g>
                <g transform="matrix(1,0,0,1,21.4148,100)">
                    <path d="M100,1200L1378.59,968.374L1378.59,1200L100,1200Z" style="fill:white;"/>
                </g>
                <g transform="matrix(-1,-1.17961e-16,1.17961e-16,-1,1478.59,1406.98)">
                    <path d="M100,1200L1378.59,968.374L1378.59,1200L100,1200Z" style="fill:white;"/>
                </g>
            </g>
            <g transform="matrix(1.11766,0,0,1.10959,-111.766,-102.687)">
                <g transform="matrix(1.37737,-0.242867,2.15289e-17,1.42019,-225.097,119.305)">
                    <g transform="matrix(1,0,0,1,15.8795,2.64211)">
                        <rect x="227.922" y="319.802" width="124.826" height="480.198" style="fill:rgb(16,99,0);fill-rule:nonzero;"/>
                    </g>
                    <path d="M578.199,703.196L605.584,703.196C637.003,703.196 659.506,699.163 673.092,691.096C686.679,683.029 693.472,670.079 693.472,652.247C693.472,634.415 686.679,621.465 673.092,613.398C659.506,605.331 637.003,601.297 605.584,601.297L578.199,601.297L578.199,703.196ZM578.199,508.315L601.126,508.315C640.187,508.315 659.718,492.818 659.718,461.823C659.718,430.829 640.187,415.332 601.126,415.332L578.199,415.332L578.199,508.315ZM453.373,319.802L639.338,319.802C683.494,319.802 717.036,330.417 739.963,351.645C762.891,372.874 774.354,403.444 774.354,443.354C774.354,467.555 770.002,487.617 761.298,503.538C752.595,519.46 739.326,532.94 721.494,543.979C739.326,547.376 754.505,552.577 767.03,559.583C779.555,566.588 789.745,575.186 797.6,585.376C805.454,595.566 811.08,607.029 814.477,619.767C817.873,632.504 819.572,646.09 819.572,660.526C819.572,683.029 815.644,702.984 807.79,720.392C799.935,737.799 788.896,752.447 774.673,764.335C760.449,776.224 743.148,785.14 722.768,791.084C702.388,797.028 679.461,800 653.986,800L453.373,800L453.373,319.802Z" style="fill:rgb(16,99,0);fill-rule:nonzero;"/>
                    <g transform="matrix(0.92692,0,0,0.950935,34.5969,29.1762)">
                        <path d="M1157.75,442.717C1144.16,431.678 1130.58,423.505 1116.99,418.198C1103.4,412.891 1090.24,410.237 1077.5,410.237C1061.37,410.237 1048.21,414.058 1038.02,421.701C1027.83,429.343 1022.73,439.321 1022.73,451.634C1022.73,460.125 1025.28,467.131 1030.38,472.65C1035.47,478.17 1042.16,482.946 1050.44,486.98C1058.71,491.013 1068.06,494.516 1078.46,497.488C1088.86,500.46 1099.16,503.644 1109.35,507.041C1150.11,520.628 1179.93,538.778 1198.83,561.493C1217.72,584.208 1227.17,613.822 1227.17,650.336C1227.17,674.962 1223.03,697.252 1214.75,717.207C1206.47,737.162 1194.37,754.252 1178.45,768.475C1162.53,782.698 1142.99,793.737 1119.86,801.592C1096.71,809.447 1070.5,813.374 1041.2,813.374C980.487,813.374 924.23,795.33 872.432,759.24L925.929,658.615C944.61,675.174 963.079,687.487 981.336,695.554C999.593,703.621 1017.64,707.654 1035.47,707.654C1055.85,707.654 1071.03,702.984 1081.01,693.643C1090.98,684.302 1095.97,673.688 1095.97,661.8C1095.97,654.582 1094.7,648.319 1092.15,643.012C1089.6,637.705 1085.36,632.822 1079.41,628.364C1073.47,623.906 1065.72,619.767 1056.17,615.945C1046.62,612.124 1035.05,607.878 1021.46,603.208C1005.33,598.113 989.509,592.487 974.012,586.331C958.515,580.175 944.716,572.002 932.616,561.812C920.515,551.622 910.75,538.778 903.32,523.281C895.89,507.784 892.175,488.147 892.175,464.371C892.175,440.595 896.102,419.047 903.957,399.729C911.811,380.411 922.85,363.852 937.074,350.053C951.297,336.255 968.705,325.534 989.297,317.892C1009.89,310.249 1032.92,306.428 1058.4,306.428C1082.17,306.428 1107.01,309.718 1132.91,316.299C1158.81,322.88 1183.65,332.539 1207.42,345.277L1157.75,442.717Z" style="fill:rgb(16,99,0);fill-rule:nonzero;"/>
                    </g>
                </g>
                <g transform="matrix(1,0,0,1,21.4148,100)">
                    <path d="M100,1200L1378.59,968.374L1378.59,1200L100,1200Z" style="fill:rgb(16,99,0);"/>
                </g>
                <g transform="matrix(-1,-1.17961e-16,1.17961e-16,-1,1478.59,1406.98)">
                    <path d="M100,1200L1378.59,968.374L1378.59,1200L100,1200Z" style="fill:rgb(16,99,0);"/>
                </g>
            </g>
        </g>
    </g>
</svg>
